<svg xmlns="http://www.w3.org/2000/svg" width="1000" height="1000" preserveAspectRatio="xMinYMin meet" viewBox="0 0 1000 1000" class="svg-content"><g></g><g transform="translate(376.43854843100996,569.3608513005254)"><circle r="135.75761825979586" style="fill: #a7c0a1; fill-opacity: 0.5;"></circle></g><g transform="translate(645.3828086895048,569.3608513005254)"><circle r="133.18664199869912" style="fill: #1a1309; fill-opacity: 0.5;"></circle></g><g transform="translate(513.7635018315644,835.76248754684)"><circle r="163.95553564102673" style="fill: #c0050c; fill-opacity: 0.5;"></circle></g><g transform="translate(514.3959315609641,230.49685707358418)"><circle r="230.11264036134625" style="fill: #29e27b; fill-opacity: 0.5;"></circle></g><g transform="translate(238.7496963178466,780.7377436784884)"><circle r="116.50892852674397" style="fill: #b147f7; fill-opacity: 0.5;"></circle></g><g transform="translate(738.6853439432284,755.3621862314785)"><circle r="74.90434694812892" style="fill: #19247a; fill-opacity: 0.5;"></circle></g><g transform="translate(257.2231278543487,395.2125480650167)"><circle r="75.28727749245142" style="fill: #5ee68c; fill-opacity: 0.5;"></circle></g><g transform="translate(597.3626156719617,445.1322609139017)"><circle r="0" style="fill: #a0014f; fill-opacity: 0.5;"></circle></g><g transform="translate(818.5921235277419,392.3575010205787)"><circle r="114.4656399553685" style="fill: #ec96f6; fill-opacity: 0.5;"></circle></g><g transform="translate(705.1002016592888,688.4092220738462)"><circle r="0" style="fill: #229c54; fill-opacity: 0.5;"></circle></g><g transform="translate(851.7676394314891,641.6230916868362)"><circle r="85.4832684737901" style="fill: #50da35; fill-opacity: 0.5;"></circle></g><g transform="translate(302.34108738467796,683.1136410775669)"><circle r="0" style="fill: #171aed; fill-opacity: 0.5;"></circle></g><g transform="translate(302.34108738467796,683.1136410775669)"><circle r="0" style="fill: #aa5d6f; fill-opacity: 0.5;"></circle></g><g transform="translate(302.34108738467796,683.1136410775669)"><circle r="0" style="fill: #d064f9; fill-opacity: 0.5;"></circle></g><g transform="translate(302.34108738467796,683.1136410775669)"><circle r="0" style="fill: #20ac9e; fill-opacity: 0.5;"></circle></g><g transform="translate(302.34108738467796,683.1136410775669)"><circle r="0" style="fill: #36277c; fill-opacity: 0.5;"></circle></g><g transform="translate(302.34108738467796,683.1136410775669)"><circle r="0" style="fill: #67c608; fill-opacity: 0.5;"></circle></g><g transform="translate(302.34108738467796,683.1136410775669)"><circle r="0" style="fill: #48ffe5; fill-opacity: 0.5;"></circle></g><g transform="translate(302.34108738467796,683.1136410775669)"><circle r="0" style="fill: #63157f; fill-opacity: 0.5;"></circle></g><g transform="translate(302.34108738467796,683.1136410775669)"><circle r="0" style="fill: #1c0ed3; fill-opacity: 0.5;"></circle></g><g transform="translate(227.58777468991337,636.9440900419266)"><circle r="27.717294194991407" style="fill: #9bd03f; fill-opacity: 0.5;"></circle></g><g transform="translate(345.1273070420743,567.9879736399896)"><circle r="64.93071155707547" style="fill: #a7c0a1; fill-opacity: 1;"></circle></g><g transform="translate(443.79700601568607,567.9879736399896)"><circle r="33.73898741653632" style="fill: #a7c0a1; fill-opacity: 1;"></circle></g><g transform="translate(417.4587972719666,618.7071156351009)"><circle r="23.411100987139786" style="fill: #a7c0a1; fill-opacity: 1;"></circle></g><g transform="translate(418.1536085640643,514.4659976523185)"><circle r="25.609017996339116" style="fill: #a7c0a1; fill-opacity: 1;"></circle></g><g transform="translate(383.8846397888667,638.5872418907123)"><circle r="15.607400658093187" style="fill: #a7c0a1; fill-opacity: 1;"></circle></g><g transform="translate(373.93963231339933,470.4288578621354)"><circle r="36.79406988234276" style="fill: #a7c0a1; fill-opacity: 1;"></circle></g><g transform="translate(349.51719575833636,655.5086279072781)"><circle r="22.699968266348222" style="fill: #a7c0a1; fill-opacity: 1;"></circle></g><g transform="translate(465.5062485534956,622.3227478844976)"><circle r="24.772198725663" style="fill: #a7c0a1; fill-opacity: 1;"></circle></g><g transform="translate(461.3214179049196,519.4690495158703)"><circle r="17.847745473089034" style="fill: #a7c0a1; fill-opacity: 1;"></circle></g><g transform="translate(312.58024798897816,483.2080956397924)"><circle r="25.881945967820528" style="fill: #a7c0a1; fill-opacity: 1;"></circle></g><g transform="translate(414.17217906909224,670.1499763090872)"><circle r="28.1366416747327" style="fill: #a7c0a1; fill-opacity: 1;"></circle></g><g transform="translate(300.78753203367125,648.0575379459017)"><circle r="26.5960647214234" style="fill: #a7c0a1; fill-opacity: 1;"></circle></g><g transform="translate(424.87940766121517,475.0702633575333)"><circle r="14.356720507040823" style="fill: #a7c0a1; fill-opacity: 1;"></circle></g><g transform="translate(375.2755570193241,655.1518959916178)"><circle r="3.0608630966183865" style="fill: #a7c0a1; fill-opacity: 1;"></circle></g><g transform="translate(600.8546879554916,586.7255643313878)"><circle r="43.28714103805031" style="fill: #1a1309; fill-opacity: 1;"></circle></g><g transform="translate(680.033630261144,586.7255643313878)"><circle r="35.89180126760206" style="fill: #1a1309; fill-opacity: 1;"></circle></g><g transform="translate(648.1848624863604,659.216673412914)"><circle r="43.28714103805031" style="fill: #1a1309; fill-opacity: 1;"></circle></g><g transform="translate(645.9835183982708,542.7589225555087)"><circle r="19.71823116291044" style="fill: #1a1309; fill-opacity: 1;"></circle></g><g transform="translate(598.0855292966976,496.8594002433504)"><circle r="46.62167770391525" style="fill: #1a1309; fill-opacity: 1;"></circle></g><g transform="translate(689.8237050964269,523.3658992560582)"><circle r="28.21976339696039" style="fill: #1a1309; fill-opacity: 1;"></circle></g><g transform="translate(624.519775220926,622.9711188721509)"><circle r="0" style="fill: #1a1309; fill-opacity: 1;"></circle></g><g transform="translate(586.601533924417,647.7283201511243)"><circle r="19.35859798254026" style="fill: #1a1309; fill-opacity: 1;"></circle></g><g transform="translate(719.5875226480218,640.1839320985356)"><circle r="30.608630966183863" style="fill: #1a1309; fill-opacity: 1;"></circle></g><g transform="translate(550.4668212020637,545.7736390122172)"><circle r="21.643570519025154" style="fill: #1a1309; fill-opacity: 1;"></circle></g><g transform="translate(667.8834186541079,472.2812121206915)"><circle r="27.377191815436873" style="fill: #1a1309; fill-opacity: 1;"></circle></g><g transform="translate(478.6433238062862,829.7512547779347)"><circle r="45.91294644927579" style="fill: #c0050c; fill-opacity: 1;"></circle></g><g transform="translate(555.1649012217458,829.7512547779347)"><circle r="30.608630966183863" style="fill: #c0050c; fill-opacity: 1;"></circle></g><g transform="translate(527.2939894371057,864.1817149115254)"><circle r="13.688595907718437" style="fill: #c0050c; fill-opacity: 1;"></circle></g><g transform="translate(528.0461911379191,790.0754491650216)"><circle r="17.44960441178566" style="fill: #c0050c; fill-opacity: 1;"></circle></g><g transform="translate(505.83651072661394,887.9939190572935)"><circle r="18.365178579710317" style="fill: #c0050c; fill-opacity: 1;"></circle></g><g transform="translate(499.29559327823057,769.1525330136853)"><circle r="18.108310284739723" style="fill: #c0050c; fill-opacity: 1;"></circle></g><g transform="translate(555.7021633079692,878.4652334113481)"><circle r="18.108310284739723" style="fill: #c0050c; fill-opacity: 1;"></circle></g><g transform="translate(566.9830464471979,776.7345234187042)"><circle r="23.70934359644775" style="fill: #c0050c; fill-opacity: 1;"></circle></g><g transform="translate(459.49673620646655,903.8387705510569)"><circle r="30.608630966183863" style="fill: #c0050c; fill-opacity: 1;"></circle></g><g transform="translate(538.8446372648591,924.1726089710081)"><circle r="30.608630966183863" style="fill: #c0050c; fill-opacity: 1;"></circle></g><g transform="translate(448.8116356185109,755.3765396663075)"><circle r="34.22148976929609" style="fill: #c0050c; fill-opacity: 1;"></circle></g><g transform="translate(533.6298466010655,725.425167417627)"><circle r="37.48776379615147" style="fill: #c0050c; fill-opacity: 1;"></circle></g><g transform="translate(587.5718422260128,864.3063506602534)"><circle r="16.76503763453005" style="fill: #c0050c; fill-opacity: 1;"></circle></g><g transform="translate(591.7415854763059,804.7634481983209)"><circle r="13.688595907718437" style="fill: #c0050c; fill-opacity: 1;"></circle></g><g transform="translate(467.15537057034135,874.2037640670943)"><circle r="0" style="fill: #c0050c; fill-opacity: 1;"></circle></g><g transform="translate(396.6735017288803,864.9308493797071)"><circle r="43.28714103805031" style="fill: #c0050c; fill-opacity: 1;"></circle></g><g transform="translate(403.1711394610438,795.4389667175185)"><circle r="26.50785199177825" style="fill: #c0050c; fill-opacity: 1;"></circle></g><g transform="translate(487.8759798643059,958.0805596799665)"><circle r="30.608630966183863" style="fill: #c0050c; fill-opacity: 1;"></circle></g><g transform="translate(600.767826486775,835.0777788721477)"><circle r="15.304315483091932" style="fill: #c0050c; fill-opacity: 1;"></circle></g><g transform="translate(479.87550168391766,714.0856423771871)"><circle r="17.44960441178566" style="fill: #c0050c; fill-opacity: 1;"></circle></g><g transform="translate(639.6503133236921,804.4027466264527)"><circle r="34.22148976929609" style="fill: #c0050c; fill-opacity: 1;"></circle></g><g transform="translate(572.2507905249182,871.1131018426896)"><circle r="0" style="fill: #c0050c; fill-opacity: 1;"></circle></g><g transform="translate(470.36792452546524,288.17983914055526)"><circle r="0" style="fill: #29e27b; fill-opacity: 1;"></circle></g><g transform="translate(495.04539174265796,288.17983914055526)"><circle r="24.677467217192675" style="fill: #29e27b; fill-opacity: 1;"></circle></g><g transform="translate(455.06360904237334,288.17983914055526)"><circle r="15.304315483091932" style="fill: #29e27b; fill-opacity: 1;"></circle></g><g transform="translate(441.6649180017373,151.09423470564684)"><circle r="122.43452386473545" style="fill: #29e27b; fill-opacity: 1;"></circle></g><g transform="translate(459.0220649867587,351.7575386678121)"><circle r="48.39649495635065" style="fill: #29e27b; fill-opacity: 1;"></circle></g><g transform="translate(482.88012194434424,309.6503677551436)"><circle r="0" style="fill: #29e27b; fill-opacity: 1;"></circle></g><g transform="translate(486.0910243524533,265.1842592849208)"><circle r="0" style="fill: #29e27b; fill-opacity: 1;"></circle></g><g transform="translate(486.0910243524533,265.1842592849208)"><circle r="0" style="fill: #29e27b; fill-opacity: 1;"></circle></g><g transform="translate(486.0910243524533,265.1842592849208)"><circle r="0" style="fill: #29e27b; fill-opacity: 1;"></circle></g><g transform="translate(486.0910243524533,265.1842592849208)"><circle r="0" style="fill: #29e27b; fill-opacity: 1;"></circle></g><g transform="translate(486.0910243524533,265.1842592849208)"><circle r="0" style="fill: #29e27b; fill-opacity: 1;"></circle></g><g transform="translate(486.0910243524533,265.1842592849208)"><circle r="0" style="fill: #29e27b; fill-opacity: 1;"></circle></g><g transform="translate(533.3941646962969,262.1988816926404)"><circle r="21.643570519025154" style="fill: #29e27b; fill-opacity: 1;"></circle></g><g transform="translate(482.88012194434424,309.6503677551436)"><circle r="0" style="fill: #29e27b; fill-opacity: 1;"></circle></g><g transform="translate(561.0436405240977,333.8748428509166)"><circle r="55.18049421016539" style="fill: #29e27b; fill-opacity: 1;"></circle></g><g transform="translate(456.0146402487406,303.4545768486314)"><circle r="0" style="fill: #29e27b; fill-opacity: 1;"></circle></g><g transform="translate(456.0146402487406,303.4545768486314)"><circle r="0" style="fill: #29e27b; fill-opacity: 1;"></circle></g><g transform="translate(409.58008198593024,296.083451573966)"><circle r="26.062310142760207" style="fill: #29e27b; fill-opacity: 1;"></circle></g><g transform="translate(541.1838251627485,282.39208190036913)"><circle r="0" style="fill: #29e27b; fill-opacity: 1;"></circle></g><g transform="translate(541.1838251627485,282.39208190036913)"><circle r="0" style="fill: #29e27b; fill-opacity: 1;"></circle></g><g transform="translate(541.1838251627485,282.39208190036913)"><circle r="0" style="fill: #29e27b; fill-opacity: 1;"></circle></g><g transform="translate(590.2425540746929,245.9269634598239)"><circle r="37.48776379615147" style="fill: #29e27b; fill-opacity: 1;"></circle></g><g transform="translate(519.614496271765,245.50861857542216)"><circle r="0" style="fill: #29e27b; fill-opacity: 1;"></circle></g><g transform="translate(519.614496271765,245.5086185754222)"><circle r="0" style="fill: #29e27b; fill-opacity: 1;"></circle></g><g transform="translate(519.614496271765,245.5086185754222)"><circle r="0" style="fill: #29e27b; fill-opacity: 1;"></circle></g><g transform="translate(519.614496271765,245.5086185754222)"><circle r="0" style="fill: #29e27b; fill-opacity: 1;"></circle></g><g transform="translate(519.614496271765,245.5086185754222)"><circle r="0" style="fill: #29e27b; fill-opacity: 1;"></circle></g><g transform="translate(571.7058490185451,196.4962624705874)"><circle r="15.304315483091932" style="fill: #29e27b; fill-opacity: 1;"></circle></g><g transform="translate(506.6917908840404,343.40182463859213)"><circle r="0" style="fill: #29e27b; fill-opacity: 1;"></circle></g><g transform="translate(506.6917908840404,343.40182463859213)"><circle r="0" style="fill: #29e27b; fill-opacity: 1;"></circle></g><g transform="translate(511.7714725928867,376.0535844335139)"><circle r="9.67929899127013" style="fill: #29e27b; fill-opacity: 1;"></circle></g><g transform="translate(426.88592318897145,315.5706748300521)"><circle r="0" style="fill: #29e27b; fill-opacity: 1;"></circle></g><g transform="translate(426.88592318897145,315.5706748300521)"><circle r="0" style="fill: #29e27b; fill-opacity: 1;"></circle></g><g transform="translate(383.77055338306286,342.87713280164803)"><circle r="27.377191815436873" style="fill: #29e27b; fill-opacity: 1;"></circle></g><g transform="translate(415.21121140358736,270.63675451012256)"><circle r="0" style="fill: #29e27b; fill-opacity: 1;"></circle></g><g transform="translate(415.21121140358736,270.63675451012256)"><circle r="0" style="fill: #29e27b; fill-opacity: 1;"></circle></g><g transform="translate(415.21121140358736,270.63675451012256)"><circle r="0" style="fill: #29e27b; fill-opacity: 1;"></circle></g><g transform="translate(415.21121140358736,270.63675451012256)"><circle r="0" style="fill: #29e27b; fill-opacity: 1;"></circle></g><g transform="translate(415.21121140358736,270.63675451012256)"><circle r="0" style="fill: #29e27b; fill-opacity: 1;"></circle></g><g transform="translate(415.21121140358736,270.63675451012256)"><circle r="0" style="fill: #29e27b; fill-opacity: 1;"></circle></g><g transform="translate(367.09899899910073,274.376110926558)"><circle r="21.643570519025154" style="fill: #29e27b; fill-opacity: 1;"></circle></g><g transform="translate(670.4058506319153,300.11700653170305)"><circle r="59.273358991119366" style="fill: #29e27b; fill-opacity: 1;"></circle></g><g transform="translate(502.979904658532,372.0042434725636)"><circle r="0" style="fill: #29e27b; fill-opacity: 1;"></circle></g><g transform="translate(507.0160486503106,422.9803119469358)"><circle r="37.48776379615147" style="fill: #29e27b; fill-opacity: 1;"></circle></g><g transform="translate(212.70149735866184,755.1160610254199)"><circle r="11.24632913884544" style="fill: #b147f7; fill-opacity: 1;"></circle></g><g transform="translate(272.3443214538579,755.1160610254199)"><circle r="48.39649495635065" style="fill: #b147f7; fill-opacity: 1;"></circle></g><g transform="translate(223.94782649750726,755.1160610254199)"><circle r="0" style="fill: #b147f7; fill-opacity: 1;"></circle></g><g transform="translate(223.94782649750726,755.1160610254199)"><circle r="0" style="fill: #b147f7; fill-opacity: 1;"></circle></g><g transform="translate(223.94782649750726,755.1160610254199)"><circle r="0" style="fill: #b147f7; fill-opacity: 1;"></circle></g><g transform="translate(210.4665360679782,722.3021851870807)"><circle r="21.643570519025154" style="fill: #b147f7; fill-opacity: 1;"></circle></g><g transform="translate(189.57714501321712,817.3879422306992)"><circle r="55.18049421016539" style="fill: #b147f7; fill-opacity: 1;"></circle></g><g transform="translate(242.15567671917216,688.7787737340064)"><circle r="24.486904772947092" style="fill: #b147f7; fill-opacity: 1;"></circle></g><g transform="translate(233.67124098111734,784.2126857576634)"><circle r="0" style="fill: #b147f7; fill-opacity: 1;"></circle></g><g transform="translate(233.6712409811173,784.2126857576634)"><circle r="0" style="fill: #b147f7; fill-opacity: 1;"></circle></g><g transform="translate(233.6712409811173,784.2126857576634)"><circle r="0" style="fill: #b147f7; fill-opacity: 1;"></circle></g><g transform="translate(233.67124098111734,784.2126857576634)"><circle r="0" style="fill: #b147f7; fill-opacity: 1;"></circle></g><g transform="translate(233.67124098111734,784.2126857576634)"><circle r="0" style="fill: #b147f7; fill-opacity: 1;"></circle></g><g transform="translate(281.61110562545593,843.519606476384)"><circle r="40.491412754336594" style="fill: #b147f7; fill-opacity: 1;"></circle></g><g transform="translate(278.61244775210014,694.6100887367097)"><circle r="12.433284674130359" style="fill: #b147f7; fill-opacity: 1;"></circle></g><g transform="translate(211.93727762710083,743.895727371685)"><circle r="0" style="fill: #b147f7; fill-opacity: 1;"></circle></g><g transform="translate(716.7967009786561,755.3621862314785)"><circle r="0" style="fill: #19247a; fill-opacity: 1;"></circle></g><g transform="translate(716.7967009786561,755.3621862314785)"><circle r="0" style="fill: #19247a; fill-opacity: 1;"></circle></g><g transform="translate(716.7967009786561,755.3621862314785)"><circle r="0" style="fill: #19247a; fill-opacity: 1;"></circle></g><g transform="translate(716.7967009786561,755.3621862314785)"><circle r="0" style="fill: #19247a; fill-opacity: 1;"></circle></g><g transform="translate(716.7967009786561,755.3621862314785)"><circle r="0" style="fill: #19247a; fill-opacity: 1;"></circle></g><g transform="translate(765.1931959350067,755.3621862314785)"><circle r="48.39649495635065" style="fill: #19247a; fill-opacity: 1;"></circle></g><g transform="translate(716.7967009786561,755.3621862314785)"><circle r="0" style="fill: #19247a; fill-opacity: 1;"></circle></g><g transform="translate(716.7967009786561,755.3621862314785)"><circle r="0" style="fill: #19247a; fill-opacity: 1;"></circle></g><g transform="translate(716.7967009786561,755.3621862314785)"><circle r="0" style="fill: #19247a; fill-opacity: 1;"></circle></g><g transform="translate(716.7967009786561,755.3621862314785)"><circle r="0" style="fill: #19247a; fill-opacity: 1;"></circle></g><g transform="translate(690.2888489868777,755.3621862314785)"><circle r="26.50785199177825" style="fill: #19247a; fill-opacity: 1;"></circle></g><g transform="translate(716.796700978656,755.3621862314785)"><circle r="0" style="fill: #19247a; fill-opacity: 1;"></circle></g><g transform="translate(716.796700978656,755.3621862314785)"><circle r="0" style="fill: #19247a; fill-opacity: 1;"></circle></g><g transform="translate(291.44461762364483,395.2125480650167)"><circle r="0" style="fill: #5ee68c; fill-opacity: 1;"></circle></g><g transform="translate(311.97751148522246,395.2125480650167)"><circle r="20.532893861577655" style="fill: #5ee68c; fill-opacity: 1;"></circle></g><g transform="translate(236.69023399277106,395.2125480650167)"><circle r="54.75438363087375" style="fill: #5ee68c; fill-opacity: 1;"></circle></g><g transform="translate(291.44461762364483,395.2125480650167)"><circle r="0" style="fill: #5ee68c; fill-opacity: 1;"></circle></g><g transform="translate(291.44461762364483,395.2125480650167)"><circle r="0" style="fill: #5ee68c; fill-opacity: 1;"></circle></g><g transform="translate(291.44461762364483,395.2125480650167)"><circle r="0" style="fill: #5ee68c; fill-opacity: 1;"></circle></g><g transform="translate(291.44461762364483,395.2125480650167)"><circle r="0" style="fill: #5ee68c; fill-opacity: 1;"></circle></g><g transform="translate(291.44461762364483,395.2125480650167)"><circle r="0" style="fill: #5ee68c; fill-opacity: 1;"></circle></g><g transform="translate(291.44461762364483,395.2125480650167)"><circle r="0" style="fill: #5ee68c; fill-opacity: 1;"></circle></g><g transform="translate(291.44461762364483,395.2125480650167)"><circle r="0" style="fill: #5ee68c; fill-opacity: 1;"></circle></g><g transform="translate(291.44461762364483,395.2125480650167)"><circle r="0" style="fill: #5ee68c; fill-opacity: 1;"></circle></g><g transform="translate(291.44461762364483,395.2125480650167)"><circle r="0" style="fill: #5ee68c; fill-opacity: 1;"></circle></g><g transform="translate(291.44461762364483,395.2125480650167)"><circle r="0" style="fill: #5ee68c; fill-opacity: 1;"></circle></g><g transform="translate(291.44461762364483,395.2125480650167)"><circle r="0" style="fill: #5ee68c; fill-opacity: 1;"></circle></g><g transform="translate(291.44461762364483,395.2125480650167)"><circle r="0" style="fill: #5ee68c; fill-opacity: 1;"></circle></g><g transform="translate(291.44461762364483,395.2125480650167)"><circle r="0" style="fill: #5ee68c; fill-opacity: 1;"></circle></g><g transform="translate(291.44461762364483,395.2125480650167)"><circle r="0" style="fill: #5ee68c; fill-opacity: 1;"></circle></g><g transform="translate(291.44461762364483,395.2125480650167)"><circle r="0" style="fill: #5ee68c; fill-opacity: 1;"></circle></g><g transform="translate(291.44461762364483,395.2125480650167)"><circle r="0" style="fill: #5ee68c; fill-opacity: 1;"></circle></g><g transform="translate(291.44461762364483,395.2125480650167)"><circle r="0" style="fill: #5ee68c; fill-opacity: 1;"></circle></g><g transform="translate(291.44461762364483,395.2125480650167)"><circle r="0" style="fill: #5ee68c; fill-opacity: 1;"></circle></g><g transform="translate(291.44461762364483,395.2125480650167)"><circle r="0" style="fill: #5ee68c; fill-opacity: 1;"></circle></g><g transform="translate(291.44461762364483,395.2125480650167)"><circle r="0" style="fill: #5ee68c; fill-opacity: 1;"></circle></g><g transform="translate(291.44461762364483,395.2125480650167)"><circle r="0" style="fill: #5ee68c; fill-opacity: 1;"></circle></g><g transform="translate(597.3626156719617,445.1322609139017)"><circle r="0" style="fill: #a0014f; fill-opacity: 1;"></circle></g><g transform="translate(597.3626156719617,445.1322609139017)"><circle r="0" style="fill: #a0014f; fill-opacity: 1;"></circle></g><g transform="translate(597.3626156719617,445.1322609139017)"><circle r="0" style="fill: #a0014f; fill-opacity: 1;"></circle></g><g transform="translate(597.3626156719617,445.1322609139017)"><circle r="0" style="fill: #a0014f; fill-opacity: 1;"></circle></g><g transform="translate(597.3626156719617,445.1322609139017)"><circle r="0" style="fill: #a0014f; fill-opacity: 1;"></circle></g><g transform="translate(597.3626156719617,445.1322609139017)"><circle r="0" style="fill: #a0014f; fill-opacity: 1;"></circle></g><g transform="translate(597.3626156719617,445.1322609139017)"><circle r="0" style="fill: #a0014f; fill-opacity: 1;"></circle></g><g transform="translate(597.3626156719617,445.1322609139017)"><circle r="0" style="fill: #a0014f; fill-opacity: 1;"></circle></g><g transform="translate(597.3626156719617,445.1322609139017)"><circle r="0" style="fill: #a0014f; fill-opacity: 1;"></circle></g><g transform="translate(597.3626156719617,445.1322609139017)"><circle r="0" style="fill: #a0014f; fill-opacity: 1;"></circle></g><g transform="translate(597.3626156719617,445.1322609139017)"><circle r="0" style="fill: #a0014f; fill-opacity: 1;"></circle></g><g transform="translate(597.3626156719617,445.1322609139017)"><circle r="0" style="fill: #a0014f; fill-opacity: 1;"></circle></g><g transform="translate(597.3626156719617,445.1322609139017)"><circle r="0" style="fill: #a0014f; fill-opacity: 1;"></circle></g><g transform="translate(704.1264835723734,392.3575010205787)"><circle r="0" style="fill: #ec96f6; fill-opacity: 1;"></circle></g><g transform="translate(818.5921235277419,392.3575010205787)"><circle r="114.4656399553685" style="fill: #ec96f6; fill-opacity: 1;"></circle></g><g transform="translate(705.1002016592888,688.4092220738462)"><circle r="0" style="fill: #229c54; fill-opacity: 1;"></circle></g><g transform="translate(705.1002016592888,688.4092220738462)"><circle r="0" style="fill: #229c54; fill-opacity: 1;"></circle></g><g transform="translate(705.1002016592888,688.4092220738462)"><circle r="0" style="fill: #229c54; fill-opacity: 1;"></circle></g><g transform="translate(705.1002016592888,688.4092220738462)"><circle r="0" style="fill: #229c54; fill-opacity: 1;"></circle></g><g transform="translate(705.1002016592888,688.4092220738462)"><circle r="0" style="fill: #229c54; fill-opacity: 1;"></circle></g><g transform="translate(705.1002016592888,688.4092220738462)"><circle r="0" style="fill: #229c54; fill-opacity: 1;"></circle></g><g transform="translate(705.1002016592888,688.4092220738462)"><circle r="0" style="fill: #229c54; fill-opacity: 1;"></circle></g><g transform="translate(705.1002016592888,688.4092220738462)"><circle r="0" style="fill: #229c54; fill-opacity: 1;"></circle></g><g transform="translate(705.1002016592888,688.4092220738462)"><circle r="0" style="fill: #229c54; fill-opacity: 1;"></circle></g><g transform="translate(705.1002016592888,688.4092220738462)"><circle r="0" style="fill: #229c54; fill-opacity: 1;"></circle></g><g transform="translate(705.1002016592888,688.4092220738462)"><circle r="0" style="fill: #229c54; fill-opacity: 1;"></circle></g><g transform="translate(822.7238977516198,641.6230918860206)"><circle r="0" style="fill: #50da35; fill-opacity: 1;"></circle></g><g transform="translate(822.7238977516198,641.6230918860206)"><circle r="0" style="fill: #50da35; fill-opacity: 1;"></circle></g><g transform="translate(822.7238977516198,641.6230918860206)"><circle r="0" style="fill: #50da35; fill-opacity: 1;"></circle></g><g transform="translate(879.9874028284495,641.6230918860206)"><circle r="57.26350507682972" style="fill: #50da35; fill-opacity: 1;"></circle></g><g transform="translate(794.5041343546594,641.6230912826516)"><circle r="28.21976339696039" style="fill: #50da35; fill-opacity: 1;"></circle></g><g transform="translate(822.7238977516198,641.6230918860206)"><circle r="0" style="fill: #50da35; fill-opacity: 1;"></circle></g><g transform="translate(822.7238977516198,641.6230918860206)"><circle r="0" style="fill: #50da35; fill-opacity: 1;"></circle></g><g transform="translate(822.7238977516198,641.6230918860206)"><circle r="0" style="fill: #50da35; fill-opacity: 1;"></circle></g><g transform="translate(819.6919281551958,668.9218961773694)"><circle r="8.923872736544517" style="fill: #50da35; fill-opacity: 1;"></circle></g><g transform="translate(818.3734460411449,608.2577367189244)"><circle r="12.804508998169558" style="fill: #50da35; fill-opacity: 1;"></circle></g><g transform="translate(302.34108738467796,683.1136410775669)"><circle r="0" style="fill: #171aed; fill-opacity: 1;"></circle></g><g transform="translate(302.34108738467796,683.1136410775669)"><circle r="0" style="fill: #171aed; fill-opacity: 1;"></circle></g><g transform="translate(302.34108738467796,683.1136410775669)"><circle r="0" style="fill: #171aed; fill-opacity: 1;"></circle></g><g transform="translate(302.34108738467796,683.1136410775669)"><circle r="0" style="fill: #171aed; fill-opacity: 1;"></circle></g><g transform="translate(302.34108738467796,683.1136410775669)"><circle r="0" style="fill: #171aed; fill-opacity: 1;"></circle></g><g transform="translate(302.34108738467796,683.1136410775669)"><circle r="0" style="fill: #171aed; fill-opacity: 1;"></circle></g><g transform="translate(302.34108738467796,683.1136410775669)"><circle r="0" style="fill: #aa5d6f; fill-opacity: 1;"></circle></g><g transform="translate(302.34108738467796,683.1136410775669)"><circle r="0" style="fill: #d064f9; fill-opacity: 1;"></circle></g><g transform="translate(302.34108738467796,683.1136410775669)"><circle r="0" style="fill: #d064f9; fill-opacity: 1;"></circle></g><g transform="translate(302.34108738467796,683.1136410775669)"><circle r="0" style="fill: #d064f9; fill-opacity: 1;"></circle></g><g transform="translate(302.34108738467796,683.1136410775669)"><circle r="0" style="fill: #d064f9; fill-opacity: 1;"></circle></g><g transform="translate(302.34108738467796,683.1136410775669)"><circle r="0" style="fill: #d064f9; fill-opacity: 1;"></circle></g><g transform="translate(302.34108738467796,683.1136410775669)"><circle r="0" style="fill: #d064f9; fill-opacity: 1;"></circle></g><g transform="translate(302.34108738467796,683.1136410775669)"><circle r="0" style="fill: #d064f9; fill-opacity: 1;"></circle></g><g transform="translate(302.34108738467796,683.1136410775669)"><circle r="0" style="fill: #20ac9e; fill-opacity: 1;"></circle></g><g transform="translate(302.34108738467796,683.1136410775669)"><circle r="0" style="fill: #20ac9e; fill-opacity: 1;"></circle></g><g transform="translate(302.34108738467796,683.1136410775669)"><circle r="0" style="fill: #20ac9e; fill-opacity: 1;"></circle></g><g transform="translate(302.34108738467796,683.1136410775669)"><circle r="0" style="fill: #20ac9e; fill-opacity: 1;"></circle></g><g transform="translate(302.34108738467796,683.1136410775669)"><circle r="0" style="fill: #20ac9e; fill-opacity: 1;"></circle></g><g transform="translate(302.34108738467796,683.1136410775669)"><circle r="0" style="fill: #20ac9e; fill-opacity: 1;"></circle></g><g transform="translate(302.34108738467796,683.1136410775669)"><circle r="0" style="fill: #20ac9e; fill-opacity: 1;"></circle></g><g transform="translate(302.34108738467796,683.1136410775669)"><circle r="0" style="fill: #36277c; fill-opacity: 1;"></circle></g><g transform="translate(302.34108738467796,683.1136410775669)"><circle r="0" style="fill: #36277c; fill-opacity: 1;"></circle></g><g transform="translate(302.34108738467796,683.1136410775669)"><circle r="0" style="fill: #36277c; fill-opacity: 1;"></circle></g><g transform="translate(302.34108738467796,683.1136410775669)"><circle r="0" style="fill: #36277c; fill-opacity: 1;"></circle></g><g transform="translate(302.34108738467796,683.1136410775669)"><circle r="0" style="fill: #36277c; fill-opacity: 1;"></circle></g><g transform="translate(302.34108738467796,683.1136410775669)"><circle r="0" style="fill: #67c608; fill-opacity: 1;"></circle></g><g transform="translate(302.34108738467796,683.1136410775669)"><circle r="0" style="fill: #67c608; fill-opacity: 1;"></circle></g><g transform="translate(302.34108738467796,683.1136410775669)"><circle r="0" style="fill: #67c608; fill-opacity: 1;"></circle></g><g transform="translate(302.34108738467796,683.1136410775669)"><circle r="0" style="fill: #67c608; fill-opacity: 1;"></circle></g><g transform="translate(302.34108738467796,683.1136410775669)"><circle r="0" style="fill: #67c608; fill-opacity: 1;"></circle></g><g transform="translate(302.34108738467796,683.1136410775669)"><circle r="0" style="fill: #67c608; fill-opacity: 1;"></circle></g><g transform="translate(302.34108738467796,683.1136410775669)"><circle r="0" style="fill: #67c608; fill-opacity: 1;"></circle></g><g transform="translate(302.34108738467796,683.1136410775669)"><circle r="0" style="fill: #67c608; fill-opacity: 1;"></circle></g><g transform="translate(302.34108738467796,683.1136410775669)"><circle r="0" style="fill: #67c608; fill-opacity: 1;"></circle></g><g transform="translate(302.34108738467796,683.1136410775669)"><circle r="0" style="fill: #67c608; fill-opacity: 1;"></circle></g><g transform="translate(302.34108738467796,683.1136410775669)"><circle r="0" style="fill: #67c608; fill-opacity: 1;"></circle></g><g transform="translate(302.34108738467796,683.1136410775669)"><circle r="0" style="fill: #67c608; fill-opacity: 1;"></circle></g><g transform="translate(302.34108738467796,683.1136410775669)"><circle r="0" style="fill: #67c608; fill-opacity: 1;"></circle></g><g transform="translate(302.34108738467796,683.1136410775669)"><circle r="0" style="fill: #48ffe5; fill-opacity: 1;"></circle></g><g transform="translate(302.34108738467796,683.1136410775669)"><circle r="0" style="fill: #48ffe5; fill-opacity: 1;"></circle></g><g transform="translate(302.34108738467796,683.1136410775669)"><circle r="0" style="fill: #48ffe5; fill-opacity: 1;"></circle></g><g transform="translate(302.34108738467796,683.1136410775669)"><circle r="0" style="fill: #48ffe5; fill-opacity: 1;"></circle></g><g transform="translate(302.34108738467796,683.1136410775669)"><circle r="0" style="fill: #48ffe5; fill-opacity: 1;"></circle></g><g transform="translate(302.34108738467796,683.1136410775669)"><circle r="0" style="fill: #48ffe5; fill-opacity: 1;"></circle></g><g transform="translate(302.34108738467796,683.1136410775669)"><circle r="0" style="fill: #48ffe5; fill-opacity: 1;"></circle></g><g transform="translate(302.34108738467796,683.1136410775669)"><circle r="0" style="fill: #48ffe5; fill-opacity: 1;"></circle></g><g transform="translate(302.34108738467796,683.1136410775669)"><circle r="0" style="fill: #63157f; fill-opacity: 1;"></circle></g><g transform="translate(302.34108738467796,683.1136410775669)"><circle r="0" style="fill: #1c0ed3; fill-opacity: 1;"></circle></g><g transform="translate(227.58777468991337,636.9440900419266)"><circle r="27.717294194991407" style="fill: #9bd03f; fill-opacity: 1;"></circle></g></svg>