<svg xmlns="http://www.w3.org/2000/svg" width="1000" height="1000" preserveAspectRatio="xMinYMin meet" viewBox="0 0 1000 1000" class="svg-content"><g></g><g transform="translate(376.43854843100985,569.3608513005254)"><circle r="135.75761825979583" style="fill: #1dac82; fill-opacity: 0.5;"></circle></g><g transform="translate(645.3828086895048,569.3608513005254)"><circle r="133.1866419986991" style="fill: #10d21a; fill-opacity: 0.5;"></circle></g><g transform="translate(513.7635018315643,835.7624875468399)"><circle r="163.9555356410267" style="fill: #c2f0c8; fill-opacity: 0.5;"></circle></g><g transform="translate(514.395931560964,230.49685707358412)"><circle r="230.11264036134617" style="fill: #b419ed; fill-opacity: 0.5;"></circle></g><g transform="translate(238.74969631784666,780.7377436784884)"><circle r="116.50892852674394" style="fill: #77161b; fill-opacity: 0.5;"></circle></g><g transform="translate(738.6853439432283,755.3621862314784)"><circle r="74.9043469481289" style="fill: #ca7617; fill-opacity: 0.5;"></circle></g><g transform="translate(257.2231278543487,395.2125480650166)"><circle r="75.28727749245141" style="fill: #2fee82; fill-opacity: 0.5;"></circle></g><g transform="translate(597.3626156719617,445.13226091390163)"><circle r="0" style="fill: #5c7a7d; fill-opacity: 0.5;"></circle></g><g transform="translate(818.5921235277416,392.35750102057864)"><circle r="114.46563995536847" style="fill: #ca5eb1; fill-opacity: 0.5;"></circle></g><g transform="translate(705.1002016592886,688.4092220738461)"><circle r="0" style="fill: #199d07; fill-opacity: 0.5;"></circle></g><g transform="translate(851.767639431489,641.6230916868361)"><circle r="85.48326847379009" style="fill: #08c12e; fill-opacity: 0.5;"></circle></g><g transform="translate(345.12730704207416,567.9879736399896)"><circle r="64.93071155707545" style="fill: #1dac82; fill-opacity: 1;"></circle></g><g transform="translate(443.7970060156859,567.9879736399896)"><circle r="33.73898741653631" style="fill: #1dac82; fill-opacity: 1;"></circle></g><g transform="translate(417.4587972719665,618.7071156351009)"><circle r="23.41110098713978" style="fill: #1dac82; fill-opacity: 1;"></circle></g><g transform="translate(418.15360856406414,514.4659976523185)"><circle r="25.609017996339112" style="fill: #1dac82; fill-opacity: 1;"></circle></g><g transform="translate(383.8846397888666,638.5872418907123)"><circle r="15.607400658093185" style="fill: #1dac82; fill-opacity: 1;"></circle></g><g transform="translate(373.93963231339916,470.4288578621354)"><circle r="36.794069882342754" style="fill: #1dac82; fill-opacity: 1;"></circle></g><g transform="translate(349.51719575833624,655.5086279072781)"><circle r="22.69996826634822" style="fill: #1dac82; fill-opacity: 1;"></circle></g><g transform="translate(465.5062485534954,622.3227478844977)"><circle r="24.772198725662992" style="fill: #1dac82; fill-opacity: 1;"></circle></g><g transform="translate(461.3214179049195,519.4690495158703)"><circle r="17.84774547308903" style="fill: #1dac82; fill-opacity: 1;"></circle></g><g transform="translate(312.58024798897804,483.2080956397924)"><circle r="25.88194596782052" style="fill: #1dac82; fill-opacity: 1;"></circle></g><g transform="translate(414.17217906909207,670.1499763090872)"><circle r="28.136641674732694" style="fill: #1dac82; fill-opacity: 1;"></circle></g><g transform="translate(300.78753203367114,648.0575379459017)"><circle r="26.596064721423396" style="fill: #1dac82; fill-opacity: 1;"></circle></g><g transform="translate(424.879407661215,475.07026335753335)"><circle r="14.356720507040821" style="fill: #1dac82; fill-opacity: 1;"></circle></g><g transform="translate(375.27555701932397,655.1518959916177)"><circle r="3.0608630966183856" style="fill: #1dac82; fill-opacity: 1;"></circle></g><g transform="translate(600.8546879554916,586.7255643313878)"><circle r="43.2871410380503" style="fill: #10d21a; fill-opacity: 1;"></circle></g><g transform="translate(680.033630261144,586.7255643313878)"><circle r="35.891801267602055" style="fill: #10d21a; fill-opacity: 1;"></circle></g><g transform="translate(648.1848624863604,659.2166734129139)"><circle r="43.2871410380503" style="fill: #10d21a; fill-opacity: 1;"></circle></g><g transform="translate(645.9835183982708,542.7589225555087)"><circle r="19.718231162910435" style="fill: #10d21a; fill-opacity: 1;"></circle></g><g transform="translate(598.0855292966976,496.8594002433504)"><circle r="46.62167770391524" style="fill: #10d21a; fill-opacity: 1;"></circle></g><g transform="translate(689.8237050964269,523.3658992560582)"><circle r="28.21976339696038" style="fill: #10d21a; fill-opacity: 1;"></circle></g><g transform="translate(624.519775220926,622.9711188721508)"><circle r="0" style="fill: #10d21a; fill-opacity: 1;"></circle></g><g transform="translate(586.601533924417,647.7283201511243)"><circle r="19.358597982540257" style="fill: #10d21a; fill-opacity: 1;"></circle></g><g transform="translate(719.5875226480218,640.1839320985356)"><circle r="30.608630966183856" style="fill: #10d21a; fill-opacity: 1;"></circle></g><g transform="translate(550.4668212020637,545.7736390122172)"><circle r="21.64357051902515" style="fill: #10d21a; fill-opacity: 1;"></circle></g><g transform="translate(667.8834186541079,472.2812121206915)"><circle r="27.37719181543687" style="fill: #10d21a; fill-opacity: 1;"></circle></g><g transform="translate(478.6433238062861,829.7512547779346)"><circle r="45.912946449275786" style="fill: #c2f0c8; fill-opacity: 1;"></circle></g><g transform="translate(555.1649012217457,829.7512547779346)"><circle r="30.608630966183856" style="fill: #c2f0c8; fill-opacity: 1;"></circle></g><g transform="translate(527.2939894371056,864.1817149115253)"><circle r="13.688595907718435" style="fill: #c2f0c8; fill-opacity: 1;"></circle></g><g transform="translate(528.046191137919,790.0754491650215)"><circle r="17.449604411785657" style="fill: #c2f0c8; fill-opacity: 1;"></circle></g><g transform="translate(505.8365107266138,887.9939190572934)"><circle r="18.36517857971031" style="fill: #c2f0c8; fill-opacity: 1;"></circle></g><g transform="translate(499.29559327823046,769.1525330136852)"><circle r="18.10831028473972" style="fill: #c2f0c8; fill-opacity: 1;"></circle></g><g transform="translate(555.702163307969,878.465233411348)"><circle r="18.10831028473972" style="fill: #c2f0c8; fill-opacity: 1;"></circle></g><g transform="translate(566.9830464471977,776.7345234187042)"><circle r="23.70934359644774" style="fill: #c2f0c8; fill-opacity: 1;"></circle></g><g transform="translate(459.4967362064665,903.8387705510568)"><circle r="30.608630966183856" style="fill: #c2f0c8; fill-opacity: 1;"></circle></g><g transform="translate(538.844637264859,924.1726089710079)"><circle r="30.608630966183856" style="fill: #c2f0c8; fill-opacity: 1;"></circle></g><g transform="translate(448.81163561851076,755.3765396663074)"><circle r="34.221489769296085" style="fill: #c2f0c8; fill-opacity: 1;"></circle></g><g transform="translate(533.6298466010653,725.425167417627)"><circle r="37.48776379615146" style="fill: #c2f0c8; fill-opacity: 1;"></circle></g><g transform="translate(587.5718422260127,864.3063506602533)"><circle r="16.765037634530046" style="fill: #c2f0c8; fill-opacity: 1;"></circle></g><g transform="translate(591.7415854763058,804.7634481983208)"><circle r="13.688595907718435" style="fill: #c2f0c8; fill-opacity: 1;"></circle></g><g transform="translate(467.1553705703413,874.2037640670942)"><circle r="0" style="fill: #c2f0c8; fill-opacity: 1;"></circle></g><g transform="translate(396.6735017288802,864.930849379707)"><circle r="43.2871410380503" style="fill: #c2f0c8; fill-opacity: 1;"></circle></g><g transform="translate(403.1711394610437,795.4389667175184)"><circle r="26.507851991778246" style="fill: #c2f0c8; fill-opacity: 1;"></circle></g><g transform="translate(487.8759798643058,958.0805596799664)"><circle r="30.608630966183856" style="fill: #c2f0c8; fill-opacity: 1;"></circle></g><g transform="translate(600.7678264867749,835.0777788721476)"><circle r="15.304315483091928" style="fill: #c2f0c8; fill-opacity: 1;"></circle></g><g transform="translate(479.87550168391755,714.085642377187)"><circle r="17.449604411785657" style="fill: #c2f0c8; fill-opacity: 1;"></circle></g><g transform="translate(639.650313323692,804.4027466264525)"><circle r="34.221489769296085" style="fill: #c2f0c8; fill-opacity: 1;"></circle></g><g transform="translate(572.2507905249181,871.1131018426895)"><circle r="0" style="fill: #c2f0c8; fill-opacity: 1;"></circle></g><g transform="translate(470.3679245254651,288.17983914055515)"><circle r="0" style="fill: #b419ed; fill-opacity: 1;"></circle></g><g transform="translate(495.04539174265784,288.17983914055515)"><circle r="24.67746721719267" style="fill: #b419ed; fill-opacity: 1;"></circle></g><g transform="translate(455.06360904237323,288.17983914055515)"><circle r="15.304315483091928" style="fill: #b419ed; fill-opacity: 1;"></circle></g><g transform="translate(441.6649180017372,151.09423470564678)"><circle r="122.43452386473543" style="fill: #b419ed; fill-opacity: 1;"></circle></g><g transform="translate(459.0220649867586,351.757538667812)"><circle r="48.396494956350644" style="fill: #b419ed; fill-opacity: 1;"></circle></g><g transform="translate(482.8801219443441,309.6503677551435)"><circle r="0" style="fill: #b419ed; fill-opacity: 1;"></circle></g><g transform="translate(486.0910243524532,265.18425928492076)"><circle r="0" style="fill: #b419ed; fill-opacity: 1;"></circle></g><g transform="translate(486.0910243524532,265.18425928492076)"><circle r="0" style="fill: #b419ed; fill-opacity: 1;"></circle></g><g transform="translate(486.0910243524532,265.18425928492076)"><circle r="0" style="fill: #b419ed; fill-opacity: 1;"></circle></g><g transform="translate(486.0910243524532,265.18425928492076)"><circle r="0" style="fill: #b419ed; fill-opacity: 1;"></circle></g><g transform="translate(486.0910243524532,265.18425928492076)"><circle r="0" style="fill: #b419ed; fill-opacity: 1;"></circle></g><g transform="translate(486.0910243524532,265.18425928492076)"><circle r="0" style="fill: #b419ed; fill-opacity: 1;"></circle></g><g transform="translate(533.3941646962968,262.19888169264027)"><circle r="21.64357051902515" style="fill: #b419ed; fill-opacity: 1;"></circle></g><g transform="translate(482.8801219443442,309.6503677551435)"><circle r="0" style="fill: #b419ed; fill-opacity: 1;"></circle></g><g transform="translate(561.0436405240976,333.8748428509165)"><circle r="55.18049421016538" style="fill: #b419ed; fill-opacity: 1;"></circle></g><g transform="translate(456.0146402487405,303.4545768486313)"><circle r="0" style="fill: #b419ed; fill-opacity: 1;"></circle></g><g transform="translate(456.0146402487405,303.4545768486313)"><circle r="0" style="fill: #b419ed; fill-opacity: 1;"></circle></g><g transform="translate(409.5800819859302,296.08345157396593)"><circle r="26.0623101427602" style="fill: #b419ed; fill-opacity: 1;"></circle></g><g transform="translate(541.1838251627483,282.3920819003691)"><circle r="0" style="fill: #b419ed; fill-opacity: 1;"></circle></g><g transform="translate(541.1838251627483,282.3920819003691)"><circle r="0" style="fill: #b419ed; fill-opacity: 1;"></circle></g><g transform="translate(541.1838251627483,282.3920819003691)"><circle r="0" style="fill: #b419ed; fill-opacity: 1;"></circle></g><g transform="translate(590.2425540746927,245.92696345982384)"><circle r="37.48776379615146" style="fill: #b419ed; fill-opacity: 1;"></circle></g><g transform="translate(519.6144962717649,245.5086185754221)"><circle r="0" style="fill: #b419ed; fill-opacity: 1;"></circle></g><g transform="translate(519.6144962717649,245.5086185754221)"><circle r="0" style="fill: #b419ed; fill-opacity: 1;"></circle></g><g transform="translate(519.6144962717649,245.5086185754221)"><circle r="0" style="fill: #b419ed; fill-opacity: 1;"></circle></g><g transform="translate(519.6144962717649,245.5086185754221)"><circle r="0" style="fill: #b419ed; fill-opacity: 1;"></circle></g><g transform="translate(519.6144962717649,245.5086185754221)"><circle r="0" style="fill: #b419ed; fill-opacity: 1;"></circle></g><g transform="translate(571.705849018545,196.49626247058734)"><circle r="15.304315483091928" style="fill: #b419ed; fill-opacity: 1;"></circle></g><g transform="translate(506.6917908840403,343.401824638592)"><circle r="0" style="fill: #b419ed; fill-opacity: 1;"></circle></g><g transform="translate(506.6917908840403,343.401824638592)"><circle r="0" style="fill: #b419ed; fill-opacity: 1;"></circle></g><g transform="translate(511.7714725928866,376.05358443351383)"><circle r="9.679298991270128" style="fill: #b419ed; fill-opacity: 1;"></circle></g><g transform="translate(426.88592318897133,315.57067483005204)"><circle r="0" style="fill: #b419ed; fill-opacity: 1;"></circle></g><g transform="translate(426.88592318897133,315.57067483005204)"><circle r="0" style="fill: #b419ed; fill-opacity: 1;"></circle></g><g transform="translate(383.7705533830628,342.8771328016479)"><circle r="27.37719181543687" style="fill: #b419ed; fill-opacity: 1;"></circle></g><g transform="translate(415.2112114035873,270.6367545101225)"><circle r="0" style="fill: #b419ed; fill-opacity: 1;"></circle></g><g transform="translate(415.2112114035873,270.6367545101225)"><circle r="0" style="fill: #b419ed; fill-opacity: 1;"></circle></g><g transform="translate(415.2112114035873,270.6367545101225)"><circle r="0" style="fill: #b419ed; fill-opacity: 1;"></circle></g><g transform="translate(415.2112114035873,270.6367545101225)"><circle r="0" style="fill: #b419ed; fill-opacity: 1;"></circle></g><g transform="translate(415.2112114035873,270.6367545101225)"><circle r="0" style="fill: #b419ed; fill-opacity: 1;"></circle></g><g transform="translate(415.2112114035873,270.6367545101225)"><circle r="0" style="fill: #b419ed; fill-opacity: 1;"></circle></g><g transform="translate(367.0989989991007,274.37611092655794)"><circle r="21.64357051902515" style="fill: #b419ed; fill-opacity: 1;"></circle></g><g transform="translate(670.4058506319152,300.11700653170294)"><circle r="59.27335899111936" style="fill: #b419ed; fill-opacity: 1;"></circle></g><g transform="translate(502.97990465853195,372.00424347256353)"><circle r="0" style="fill: #b419ed; fill-opacity: 1;"></circle></g><g transform="translate(507.0160486503105,422.9803119469357)"><circle r="37.48776379615146" style="fill: #b419ed; fill-opacity: 1;"></circle></g><g transform="translate(212.7014973586619,755.1160610254199)"><circle r="11.246329138845438" style="fill: #77161b; fill-opacity: 1;"></circle></g><g transform="translate(272.344321453858,755.1160610254199)"><circle r="48.396494956350644" style="fill: #77161b; fill-opacity: 1;"></circle></g><g transform="translate(223.94782649750735,755.1160610254199)"><circle r="0" style="fill: #77161b; fill-opacity: 1;"></circle></g><g transform="translate(223.94782649750735,755.1160610254199)"><circle r="0" style="fill: #77161b; fill-opacity: 1;"></circle></g><g transform="translate(223.94782649750735,755.1160610254199)"><circle r="0" style="fill: #77161b; fill-opacity: 1;"></circle></g><g transform="translate(210.4665360679783,722.3021851870807)"><circle r="21.64357051902515" style="fill: #77161b; fill-opacity: 1;"></circle></g><g transform="translate(189.5771450132172,817.3879422306992)"><circle r="55.18049421016538" style="fill: #77161b; fill-opacity: 1;"></circle></g><g transform="translate(242.15567671917222,688.7787737340064)"><circle r="24.486904772947085" style="fill: #77161b; fill-opacity: 1;"></circle></g><g transform="translate(233.6712409811174,784.2126857576634)"><circle r="0" style="fill: #77161b; fill-opacity: 1;"></circle></g><g transform="translate(233.6712409811174,784.2126857576634)"><circle r="0" style="fill: #77161b; fill-opacity: 1;"></circle></g><g transform="translate(233.6712409811174,784.2126857576634)"><circle r="0" style="fill: #77161b; fill-opacity: 1;"></circle></g><g transform="translate(233.6712409811174,784.2126857576634)"><circle r="0" style="fill: #77161b; fill-opacity: 1;"></circle></g><g transform="translate(233.6712409811174,784.2126857576634)"><circle r="0" style="fill: #77161b; fill-opacity: 1;"></circle></g><g transform="translate(281.611105625456,843.519606476384)"><circle r="40.49141275433659" style="fill: #77161b; fill-opacity: 1;"></circle></g><g transform="translate(278.6124477521002,694.6100887367097)"><circle r="12.433284674130357" style="fill: #77161b; fill-opacity: 1;"></circle></g><g transform="translate(211.93727762710088,743.895727371685)"><circle r="0" style="fill: #77161b; fill-opacity: 1;"></circle></g><g transform="translate(716.796700978656,755.3621862314784)"><circle r="0" style="fill: #ca7617; fill-opacity: 1;"></circle></g><g transform="translate(716.796700978656,755.3621862314784)"><circle r="0" style="fill: #ca7617; fill-opacity: 1;"></circle></g><g transform="translate(716.796700978656,755.3621862314784)"><circle r="0" style="fill: #ca7617; fill-opacity: 1;"></circle></g><g transform="translate(716.796700978656,755.3621862314784)"><circle r="0" style="fill: #ca7617; fill-opacity: 1;"></circle></g><g transform="translate(716.796700978656,755.3621862314784)"><circle r="0" style="fill: #ca7617; fill-opacity: 1;"></circle></g><g transform="translate(765.1931959350065,755.3621862314784)"><circle r="48.396494956350644" style="fill: #ca7617; fill-opacity: 1;"></circle></g><g transform="translate(716.796700978656,755.3621862314784)"><circle r="0" style="fill: #ca7617; fill-opacity: 1;"></circle></g><g transform="translate(716.796700978656,755.3621862314784)"><circle r="0" style="fill: #ca7617; fill-opacity: 1;"></circle></g><g transform="translate(716.796700978656,755.3621862314784)"><circle r="0" style="fill: #ca7617; fill-opacity: 1;"></circle></g><g transform="translate(716.796700978656,755.3621862314784)"><circle r="0" style="fill: #ca7617; fill-opacity: 1;"></circle></g><g transform="translate(690.2888489868776,755.3621862314784)"><circle r="26.507851991778246" style="fill: #ca7617; fill-opacity: 1;"></circle></g><g transform="translate(716.7967009786558,755.3621862314784)"><circle r="0" style="fill: #ca7617; fill-opacity: 1;"></circle></g><g transform="translate(716.796700978656,755.3621862314784)"><circle r="0" style="fill: #ca7617; fill-opacity: 1;"></circle></g><g transform="translate(291.44461762364483,395.2125480650166)"><circle r="0" style="fill: #2fee82; fill-opacity: 1;"></circle></g><g transform="translate(311.97751148522246,395.2125480650166)"><circle r="20.53289386157765" style="fill: #2fee82; fill-opacity: 1;"></circle></g><g transform="translate(236.69023399277106,395.2125480650166)"><circle r="54.75438363087374" style="fill: #2fee82; fill-opacity: 1;"></circle></g><g transform="translate(291.44461762364483,395.2125480650166)"><circle r="0" style="fill: #2fee82; fill-opacity: 1;"></circle></g><g transform="translate(291.44461762364483,395.2125480650166)"><circle r="0" style="fill: #2fee82; fill-opacity: 1;"></circle></g><g transform="translate(291.44461762364483,395.2125480650166)"><circle r="0" style="fill: #2fee82; fill-opacity: 1;"></circle></g><g transform="translate(291.44461762364483,395.2125480650166)"><circle r="0" style="fill: #2fee82; fill-opacity: 1;"></circle></g><g transform="translate(291.44461762364483,395.2125480650166)"><circle r="0" style="fill: #2fee82; fill-opacity: 1;"></circle></g><g transform="translate(291.44461762364483,395.2125480650166)"><circle r="0" style="fill: #2fee82; fill-opacity: 1;"></circle></g><g transform="translate(291.44461762364483,395.2125480650166)"><circle r="0" style="fill: #2fee82; fill-opacity: 1;"></circle></g><g transform="translate(291.44461762364483,395.2125480650166)"><circle r="0" style="fill: #2fee82; fill-opacity: 1;"></circle></g><g transform="translate(291.44461762364483,395.2125480650166)"><circle r="0" style="fill: #2fee82; fill-opacity: 1;"></circle></g><g transform="translate(291.44461762364483,395.2125480650166)"><circle r="0" style="fill: #2fee82; fill-opacity: 1;"></circle></g><g transform="translate(291.44461762364483,395.2125480650166)"><circle r="0" style="fill: #2fee82; fill-opacity: 1;"></circle></g><g transform="translate(291.44461762364483,395.2125480650166)"><circle r="0" style="fill: #2fee82; fill-opacity: 1;"></circle></g><g transform="translate(291.44461762364483,395.2125480650166)"><circle r="0" style="fill: #2fee82; fill-opacity: 1;"></circle></g><g transform="translate(291.44461762364483,395.2125480650166)"><circle r="0" style="fill: #2fee82; fill-opacity: 1;"></circle></g><g transform="translate(291.44461762364483,395.2125480650166)"><circle r="0" style="fill: #2fee82; fill-opacity: 1;"></circle></g><g transform="translate(291.44461762364483,395.2125480650166)"><circle r="0" style="fill: #2fee82; fill-opacity: 1;"></circle></g><g transform="translate(291.44461762364483,395.2125480650166)"><circle r="0" style="fill: #2fee82; fill-opacity: 1;"></circle></g><g transform="translate(291.44461762364483,395.2125480650166)"><circle r="0" style="fill: #2fee82; fill-opacity: 1;"></circle></g><g transform="translate(291.44461762364483,395.2125480650166)"><circle r="0" style="fill: #2fee82; fill-opacity: 1;"></circle></g><g transform="translate(291.44461762364483,395.2125480650166)"><circle r="0" style="fill: #2fee82; fill-opacity: 1;"></circle></g><g transform="translate(291.44461762364483,395.2125480650166)"><circle r="0" style="fill: #2fee82; fill-opacity: 1;"></circle></g><g transform="translate(597.3626156719617,445.13226091390163)"><circle r="0" style="fill: #5c7a7d; fill-opacity: 1;"></circle></g><g transform="translate(597.3626156719617,445.13226091390163)"><circle r="0" style="fill: #5c7a7d; fill-opacity: 1;"></circle></g><g transform="translate(597.3626156719617,445.13226091390163)"><circle r="0" style="fill: #5c7a7d; fill-opacity: 1;"></circle></g><g transform="translate(597.3626156719617,445.13226091390163)"><circle r="0" style="fill: #5c7a7d; fill-opacity: 1;"></circle></g><g transform="translate(597.3626156719617,445.13226091390163)"><circle r="0" style="fill: #5c7a7d; fill-opacity: 1;"></circle></g><g transform="translate(597.3626156719617,445.13226091390163)"><circle r="0" style="fill: #5c7a7d; fill-opacity: 1;"></circle></g><g transform="translate(597.3626156719617,445.13226091390163)"><circle r="0" style="fill: #5c7a7d; fill-opacity: 1;"></circle></g><g transform="translate(597.3626156719617,445.13226091390163)"><circle r="0" style="fill: #5c7a7d; fill-opacity: 1;"></circle></g><g transform="translate(597.3626156719617,445.13226091390163)"><circle r="0" style="fill: #5c7a7d; fill-opacity: 1;"></circle></g><g transform="translate(597.3626156719617,445.13226091390163)"><circle r="0" style="fill: #5c7a7d; fill-opacity: 1;"></circle></g><g transform="translate(597.3626156719617,445.13226091390163)"><circle r="0" style="fill: #5c7a7d; fill-opacity: 1;"></circle></g><g transform="translate(597.3626156719617,445.13226091390163)"><circle r="0" style="fill: #5c7a7d; fill-opacity: 1;"></circle></g><g transform="translate(597.3626156719617,445.13226091390163)"><circle r="0" style="fill: #5c7a7d; fill-opacity: 1;"></circle></g><g transform="translate(704.1264835723731,392.35750102057864)"><circle r="0" style="fill: #ca5eb1; fill-opacity: 1;"></circle></g><g transform="translate(818.5921235277416,392.35750102057864)"><circle r="114.46563995536847" style="fill: #ca5eb1; fill-opacity: 1;"></circle></g><g transform="translate(705.1002016592886,688.4092220738461)"><circle r="0" style="fill: #199d07; fill-opacity: 1;"></circle></g><g transform="translate(705.1002016592886,688.4092220738461)"><circle r="0" style="fill: #199d07; fill-opacity: 1;"></circle></g><g transform="translate(705.1002016592886,688.4092220738461)"><circle r="0" style="fill: #199d07; fill-opacity: 1;"></circle></g><g transform="translate(705.1002016592886,688.4092220738461)"><circle r="0" style="fill: #199d07; fill-opacity: 1;"></circle></g><g transform="translate(705.1002016592886,688.4092220738461)"><circle r="0" style="fill: #199d07; fill-opacity: 1;"></circle></g><g transform="translate(705.1002016592886,688.4092220738461)"><circle r="0" style="fill: #199d07; fill-opacity: 1;"></circle></g><g transform="translate(705.1002016592886,688.4092220738461)"><circle r="0" style="fill: #199d07; fill-opacity: 1;"></circle></g><g transform="translate(705.1002016592886,688.4092220738461)"><circle r="0" style="fill: #199d07; fill-opacity: 1;"></circle></g><g transform="translate(705.1002016592886,688.4092220738461)"><circle r="0" style="fill: #199d07; fill-opacity: 1;"></circle></g><g transform="translate(705.1002016592886,688.4092220738461)"><circle r="0" style="fill: #199d07; fill-opacity: 1;"></circle></g><g transform="translate(705.1002016592886,688.4092220738461)"><circle r="0" style="fill: #199d07; fill-opacity: 1;"></circle></g><g transform="translate(822.7238977516197,641.6230918860205)"><circle r="0" style="fill: #08c12e; fill-opacity: 1;"></circle></g><g transform="translate(822.7238977516197,641.6230918860205)"><circle r="0" style="fill: #08c12e; fill-opacity: 1;"></circle></g><g transform="translate(822.7238977516197,641.6230918860205)"><circle r="0" style="fill: #08c12e; fill-opacity: 1;"></circle></g><g transform="translate(879.9874028284494,641.6230918860205)"><circle r="57.26350507682971" style="fill: #08c12e; fill-opacity: 1;"></circle></g><g transform="translate(794.5041343546593,641.6230912826514)"><circle r="28.21976339696038" style="fill: #08c12e; fill-opacity: 1;"></circle></g><g transform="translate(822.7238977516197,641.6230918860205)"><circle r="0" style="fill: #08c12e; fill-opacity: 1;"></circle></g><g transform="translate(822.7238977516197,641.6230918860205)"><circle r="0" style="fill: #08c12e; fill-opacity: 1;"></circle></g><g transform="translate(822.7238977516197,641.6230918860205)"><circle r="0" style="fill: #08c12e; fill-opacity: 1;"></circle></g><g transform="translate(819.6919281551957,668.9218961773693)"><circle r="8.923872736544515" style="fill: #08c12e; fill-opacity: 1;"></circle></g><g transform="translate(818.3734460411449,608.2577367189243)"><circle r="12.804508998169556" style="fill: #08c12e; fill-opacity: 1;"></circle></g></svg>